<svg width="1338" height="685" viewBox="0 0 1338 685" fill="none" xmlns="http://www.w3.org/2000/svg">
<path d="M297.757 385.234C303.281 439.339 335.547 526.652 252.086 528.589C261.062 513.575 273.547 457.403 252.903 396.709C232.264 336.01 140.183 270.557 140.183 270.557C140.183 270.557 185.392 276.757 198.715 268.088C212.035 259.419 208.104 249.3 208.104 249.3C208.104 249.3 176.715 195.254 158.968 176.753C141.221 158.257 101.886 165.479 101.886 165.479C101.886 165.479 99.0785 154.29 102.158 143.938C104.719 135.344 109.265 119 109.265 119C109.265 119 72.8613 131.666 63.586 156.805C54.3133 181.944 7.62943 304.124 8.67103 343.184C9.71448 382.249 52.0234 454.505 52.0234 454.505C52.0234 454.505 97.2322 533.789 50.5764 532.344C3.9312 530.905 0 565.358 0 565.358H69.4302C70.5343 560.318 72.9133 550.948 77.8415 545.021C89.3785 531.17 110.268 522.794 139.934 522.794C142.666 522.794 143.558 521.302 143.992 520.682C147.504 515.642 140.878 497.241 134.461 479.773C127.648 461.206 119.926 439.998 117.598 420.2C115.168 399.501 120.641 382.663 132.611 374.156C138.488 369.987 151.798 366.973 163.021 370.92C174.245 374.878 186.709 384.206 186.709 384.206L184.249 383.002C172.824 377.448 162.581 374.63 153.812 374.63C147.069 374.63 141.268 376.313 136.571 379.65C126.703 386.665 122.263 401.09 124.389 419.233C126.617 438.24 134.197 458.873 140.881 477.088C149.166 499.662 155.154 515.971 149.594 523.931C148.208 525.921 145.401 528.295 139.933 528.295C112.41 528.295 91.9223 534.449 81.7457 546.661C77.9263 551.23 75.2047 560.322 73.3 565.362H243.736C374.192 560.322 320.991 439.774 317.265 364.917C313.471 288.725 408.389 274.848 349.542 375.581C338.449 394.637 346.15 418.82 368.028 389.008C462.091 225.12 269.446 252.689 297.754 385.24L297.757 385.234Z" fill="black"/>
<path d="M519.25 343.25H553.5C561.333 343.25 567.667 342.75 572.5 341.75C577.333 340.583 581.833 338.5 586 335.5C590.333 332.333 593.583 327.75 595.75 321.75C597.917 315.583 599.583 307.667 600.75 298C602.083 288.333 602.75 276.25 602.75 261.75C602.75 246.083 601.75 232.917 599.75 222.25C597.917 211.583 595.583 203.333 592.75 197.5C590.083 191.667 586.083 187.25 580.75 184.25C575.583 181.083 570.75 179.167 566.25 178.5C561.75 177.833 555.667 177.5 548 177.5H519.5C518 177.5 517.25 178.917 517.25 181.75V339.25C517.25 341.917 517.917 343.25 519.25 343.25ZM483 505C479 505 477 500.917 477 492.75V157C477 152.167 477.5 149.083 478.5 147.75C479.5 146.25 481 145.5 483 145.5H549.75C555.75 145.5 560.917 145.667 565.25 146C569.75 146.167 574.75 146.75 580.25 147.75C585.917 148.583 590.75 149.833 594.75 151.5C598.917 153 603.25 155.167 607.75 158C612.417 160.833 616.333 164.25 619.5 168.25C622.833 172.083 626 177 629 183C632.167 188.833 634.667 195.5 636.5 203C638.5 210.333 640.083 219 641.25 229C642.417 238.833 643 249.667 643 261.5C643 276 642.167 289 640.5 300.5C638.833 311.833 636.583 321.5 633.75 329.5C631.083 337.333 627.583 344.083 623.25 349.75C618.917 355.417 614.417 359.917 609.75 363.25C605.25 366.583 599.917 369.167 593.75 371C587.583 372.833 581.75 374.083 576.25 374.75C570.917 375.25 564.75 375.5 557.75 375.5H519.5C518 375.5 517.25 376.917 517.25 379.75V492.75C517.25 500.917 515.167 505 511 505H483ZM712.25 364.5H778.75C779.083 364.5 779.25 363 779.25 360C778.25 331.833 775.167 311.25 770 298.25C764.833 285.083 756.833 278.5 746 278.5C725.833 278.5 714.333 302.667 711.5 351C711.5 360 711.75 364.5 712.25 364.5ZM807 443.5C807 462 802.083 477.333 792.25 489.5C782.583 501.667 768.167 507.75 749 507.75C700.167 507.75 675.75 464.833 675.75 379C675.75 357.833 677.167 339.333 680 323.5C683 307.5 686.75 295 691.25 286C695.75 276.833 701.25 269.5 707.75 264C714.25 258.333 720.5 254.667 726.5 253C732.667 251.167 739.333 250.25 746.5 250.25C788.167 250.25 809 289.75 809 368.75C809 380.75 806.5 386.75 801.5 386.75H713C711.833 386.75 711.25 388.5 711.25 392C711.25 408.5 712.5 423.083 715 435.75C717.5 448.417 721.75 458.917 727.75 467.25C733.917 475.417 741.5 479.5 750.5 479.5C756.667 479.5 761.833 478.083 766 475.25C770.333 472.25 773.5 468 775.5 462.5C777.667 457 779.083 452.333 779.75 448.5C780.583 444.5 781.333 439.417 782 433.25C782.333 429.917 783.417 428.25 785.25 428.25H802.25C805.417 428.25 807 431.667 807 438.5V443.5ZM928 505.5C921.833 505.5 916.417 505 911.75 504C907.083 502.833 902.417 500.583 897.75 497.25C893.25 493.917 889.5 489.417 886.5 483.75C883.667 477.917 881.333 470.25 879.5 460.75C877.833 451.083 877 439.667 877 426.5V289.5C877 286.5 876.083 285 874.25 285H858.25C854.25 285 852.25 281.333 852.25 274V264.5C852.25 257.167 854.25 253.5 858.25 253.5H874.25C875.917 253.5 876.833 251.25 877 246.75L881.25 158.25C881.417 149.75 883.5 145.5 887.5 145.5H905C907 145.5 908.5 146.417 909.5 148.25C910.5 149.917 911 153.25 911 158.25V246.75C911 251.25 912 253.5 914 253.5H946.25C948.25 253.5 949.75 254.25 950.75 255.75C951.75 257.25 952.25 260.167 952.25 264.5V274C952.25 278.333 951.75 281.25 950.75 282.75C949.75 284.25 948.25 285 946.25 285H914C912.833 285 912 285.25 911.5 285.75C911.167 286.25 911 287.5 911 289.5V426.5C911 440.5 912.167 451.333 914.5 459C917 466.667 919.75 471.5 922.75 473.5C925.917 475.333 929.917 476.25 934.75 476.25H952C956.5 476.25 958.75 478.75 958.75 483.75V497C958.75 502.667 956.333 505.5 951.5 505.5H928ZM1001.75 213.25C999.75 213.25 998.25 212.417 997.25 210.75C996.25 208.917 995.75 205.5 995.75 200.5V174.5C995.75 169.5 996.25 166.083 997.25 164.25C998.25 162.417 999.75 161.5 1001.75 161.5H1026.5C1030.33 161.5 1032.25 165.833 1032.25 174.5V200.5C1032.25 205.5 1031.75 208.917 1030.75 210.75C1029.92 212.417 1028.5 213.25 1026.5 213.25H1001.75ZM1003.25 505C999.083 505 997 499.917 997 489.75V268.5C997 258.5 999.083 253.5 1003.25 253.5H1025C1029 253.5 1031 258.5 1031 268.5V489.75C1031 499.917 1029 505 1025 505H1003.25ZM1096.75 505C1094.92 505 1093.33 503.583 1092 500.75C1090.83 497.75 1090.25 493.667 1090.25 488.5V291.75C1090.25 287.083 1089.67 284.75 1088.5 284.75H1075.75C1073.75 284.75 1072.25 284.167 1071.25 283C1070.25 281.833 1069.75 279.417 1069.75 275.75V263.25C1069.75 256.75 1071.75 253.5 1075.75 253.5H1088.5C1089.67 253.5 1090.25 250.75 1090.25 245.25C1090.25 217.083 1092.17 195.5 1096 180.5C1099.83 165.333 1105.25 155.25 1112.25 150.25C1119.42 145.083 1129.33 142.5 1142 142.5C1152.17 142.5 1158.92 142.833 1162.25 143.5C1163.42 143.667 1164.25 143.917 1164.75 144.25C1165.42 144.417 1166 145.167 1166.5 146.5C1167.17 147.667 1167.5 149.333 1167.5 151.5V164C1167.5 170.667 1166.42 174 1164.25 174H1149.75C1139.75 174 1133 177.917 1129.5 185.75C1126 193.417 1124.25 208.417 1124.25 230.75V252C1124.25 253 1124.5 253.5 1125 253.5H1160.25C1162.25 253.5 1163.67 254.083 1164.5 255.25C1165.33 256.417 1165.75 258.75 1165.75 262.25V275.75C1165.75 279.25 1165.33 281.667 1164.5 283C1163.67 284.167 1162.25 284.75 1160.25 284.75H1126.5C1125 284.75 1124.25 287.083 1124.25 291.75V488.5C1124.25 499.5 1122.17 505 1118 505H1096.75ZM1229 540.5C1233.5 540.5 1237.67 536.667 1241.5 529C1245.5 521.333 1247.5 512 1247.5 501C1247.5 496.667 1245.83 487.5 1242.5 473.5L1190 268.25C1189.67 265.917 1189.5 264.083 1189.5 262.75C1189.5 256.583 1190.75 253.5 1193.25 253.5H1217C1221.5 253.5 1224.42 257.667 1225.75 266L1263.5 437C1264.17 438.833 1264.58 439.75 1264.75 439.75C1265.42 439.75 1265.75 438.833 1265.75 437L1296.75 266.75C1297.92 257.917 1300.67 253.5 1305 253.5H1322C1324.83 253.5 1326.25 256.833 1326.25 263.5C1326.25 263.833 1326 265.75 1325.5 269.25L1280.5 501.5C1275.83 527.333 1269.92 545.167 1262.75 555C1255.75 564.833 1246.42 570 1234.75 570.5H1231.5C1218.17 570.5 1209.5 567.167 1205.5 560.5C1204.67 559 1204.25 556 1204.25 551.5C1204.25 541.167 1206.08 536 1209.75 536C1210.25 536 1213.08 536.75 1218.25 538.25C1223.42 539.75 1227 540.5 1229 540.5Z" fill="black"/>
</svg>
